<svg width="77" height="76" viewBox="0 0 77 76" fill="none" xmlns="http://www.w3.org/2000/svg">
<mask id="mask0_38_19" style="mask-type:alpha" maskUnits="userSpaceOnUse" x="0" y="0" width="77" height="76">
<rect width="76.2861" height="75.3665" fill="black"/>
</mask>
<g mask="url(#mask0_38_19)">
<path d="M19.6957 54.9061C22.3975 52.9859 25.2643 51.4673 28.2962 50.3504C31.328 49.233 34.6104 48.6743 38.1434 48.6743C41.6764 48.6743 44.9589 49.233 47.9907 50.3504C51.0225 51.4673 53.8894 52.9859 56.5912 54.9061C58.6901 52.7603 60.3782 50.2261 61.6555 47.3035C62.9333 44.3805 63.5721 41.1737 63.5721 37.6833C63.5721 30.7224 61.0955 24.7951 56.1422 19.9015C51.1889 15.008 45.1893 12.5612 38.1434 12.5612C31.0976 12.5612 25.098 15.008 20.1447 19.9015C15.1914 24.7951 12.7147 30.7224 12.7147 37.6833C12.7147 41.1737 13.3536 44.3805 14.6314 47.3035C15.9087 50.2261 17.5968 52.7603 19.6957 54.9061ZM38.145 39.2535C35.4665 39.2535 33.2074 38.3451 31.3675 36.5285C29.5276 34.7118 28.6077 32.4804 28.6077 29.8342C28.6077 27.188 29.5271 24.9561 31.3659 23.1384C33.2047 21.3207 35.4634 20.4118 38.1418 20.4118C40.8203 20.4118 43.0795 21.3202 44.9194 23.1368C46.7593 24.9535 47.6792 27.1849 47.6792 29.8311C47.6792 32.4773 46.7598 34.7092 44.921 36.5269C43.0822 38.3446 40.8235 39.2535 38.145 39.2535ZM38.1434 65.9457C34.1538 65.9457 30.4189 65.212 26.9389 63.7444C23.4589 62.2769 20.431 60.271 17.8553 57.7269C15.2801 55.1822 13.2498 52.1908 11.7643 48.7528C10.2789 45.3147 9.53613 41.6249 9.53613 37.6833C9.53613 33.7418 10.2789 30.0519 11.7643 26.6139C13.2498 23.1758 15.2801 20.1844 17.8553 17.6398C20.431 15.0956 23.4589 13.0898 26.9389 11.6222C30.4189 10.1547 34.1538 9.4209 38.1434 9.4209C42.1331 9.4209 45.8679 10.1547 49.348 11.6222C52.828 13.0898 55.8559 15.0956 58.4316 17.6398C61.0068 20.1844 63.0371 23.1758 64.5225 26.6139C66.008 30.0519 66.7507 33.7418 66.7507 37.6833C66.7507 41.6249 66.008 45.3147 64.5225 48.7528C63.0371 52.1908 61.0068 55.1822 58.4316 57.7269C55.8559 60.271 52.828 62.2769 49.348 63.7444C45.8679 65.212 42.1331 65.9457 38.1434 65.9457ZM38.1434 62.8055C41.0736 62.8055 43.9568 62.2991 46.7932 61.2864C49.629 60.2742 52.08 58.8882 54.146 57.1287C52.08 55.49 49.6899 54.1946 46.9759 53.2426C44.262 52.2905 41.3178 51.8145 38.1434 51.8145C34.9691 51.8145 32.0146 52.2806 29.2799 53.2127C26.5458 54.1449 24.1661 55.4502 22.1408 57.1287C24.2069 58.8882 26.6579 60.2742 29.4937 61.2864C32.3301 62.2991 35.2133 62.8055 38.1434 62.8055ZM38.1434 36.1132C39.9282 36.1132 41.4341 35.5074 42.661 34.2958C43.8874 33.0836 44.5006 31.5959 44.5006 29.8326C44.5006 28.0694 43.8874 26.5817 42.661 25.3695C41.4341 24.1579 39.9282 23.5521 38.1434 23.5521C36.3587 23.5521 34.8528 24.1579 33.6259 25.3695C32.3995 26.5817 31.7863 28.0694 31.7863 29.8326C31.7863 31.5959 32.3995 33.0836 33.6259 34.2958C34.8528 35.5074 36.3587 36.1132 38.1434 36.1132Z" fill="black"/>
</g>
</svg>
