<svg width="66" height="68" viewBox="0 0 66 68" fill="none" xmlns="http://www.w3.org/2000/svg">
<mask id="mask0_38_32" style="mask-type:alpha" maskUnits="userSpaceOnUse" x="0" y="0" width="66" height="68">
<rect width="65.084" height="67.1802" fill="#D9D9D9"/>
</mask>
<g mask="url(#mask0_38_32)">
<path d="M32.5416 55.9835C34.8466 55.9835 37.0613 55.622 39.1856 54.8988C41.3098 54.1757 43.2985 53.1377 45.1516 51.7848C43.2985 50.4318 41.3098 49.3938 39.1856 48.6707C37.0613 47.9476 34.8466 47.586 32.5416 47.586C30.2365 47.586 28.0219 47.9476 25.8976 48.6707C23.7733 49.3938 21.7846 50.4318 19.9316 51.7848C21.7846 53.1377 23.7733 54.1757 25.8976 54.8988C28.0219 55.622 30.2365 55.9835 32.5416 55.9835ZM39.7279 33.0303L35.8636 29.0415C36.0896 28.6683 36.2704 28.2717 36.4059 27.8518C36.5415 27.4319 36.6093 27.0121 36.6093 26.5922C36.6093 25.4259 36.2139 24.4345 35.4229 23.6181C34.632 22.8016 33.6715 22.3934 32.5416 22.3934C32.1348 22.3934 31.728 22.4634 31.3213 22.6034C30.9145 22.7433 30.5303 22.9299 30.1687 23.1632L26.3044 19.1744C27.1631 18.3813 28.1236 17.7865 29.1857 17.3899C30.2478 16.9934 31.3665 16.7951 32.5416 16.7951C35.163 16.7951 37.4003 17.7515 39.2534 19.6642C41.1065 21.577 42.033 23.8863 42.033 26.5922C42.033 27.8052 41.8409 28.9598 41.4567 30.0562C41.0726 31.1525 40.4963 32.1439 39.7279 33.0303ZM55.1854 48.9856L51.2532 44.9268C52.2476 43.2006 52.9933 41.3812 53.4905 39.4684C53.9877 37.5556 54.2362 35.5962 54.2362 33.5901C54.2362 27.3386 52.1346 22.0435 47.9312 17.7048C43.7279 13.3661 38.598 11.1967 32.5416 11.1967C30.5981 11.1967 28.6998 11.4533 26.8467 11.9665C24.9937 12.4797 23.231 13.2495 21.5587 14.2758L17.6265 10.217C19.8412 8.72413 22.214 7.58114 24.7451 6.78804C27.2761 5.99494 29.8749 5.59839 32.5416 5.59839C36.293 5.59839 39.8183 6.33317 43.1177 7.80274C46.4171 9.2723 49.2872 11.2667 51.7278 13.786C54.1684 16.3052 56.1006 19.2677 57.5243 22.6734C58.9481 26.079 59.6599 29.7179 59.6599 33.5901C59.6599 36.3427 59.2757 39.0252 58.5074 41.6378C57.739 44.2503 56.6317 46.6996 55.1854 48.9856ZM32.5416 61.5819C28.7902 61.5819 25.2648 60.8471 21.9654 59.3775C18.666 57.908 15.796 55.9135 13.3554 53.3943C10.9147 50.875 8.98254 47.9126 7.55882 44.5069C6.13511 41.1013 5.42326 37.4623 5.42326 33.5901C5.42326 30.8376 5.79613 28.1551 6.54189 25.5425C7.28764 22.9299 8.38367 20.4573 9.82998 18.1247L1.83008 9.79715L5.69444 5.80833L59.3887 61.232L55.5244 65.2208L13.8299 22.2535C12.8356 23.9796 12.0898 25.7991 11.5927 27.7119C11.0955 29.6246 10.8469 31.5841 10.8469 33.5901C10.8469 36.2493 11.2763 38.7919 12.135 41.2179C12.9938 43.6438 14.2367 45.8598 15.8638 47.8659C18.3045 45.9532 20.9372 44.4952 23.762 43.4922C26.5869 42.4892 29.5134 41.9877 32.5416 41.9877C34.2591 41.9877 35.9766 42.1743 37.6941 42.5475C39.4116 42.9207 41.0839 43.4339 42.711 44.087L51.7278 53.3943C49.1516 56.0535 46.2137 58.0829 42.9143 59.4825C39.6149 60.8821 36.1574 61.5819 32.5416 61.5819Z" fill="white"/>
</g>
</svg>
